<svg width="125" height="57" viewBox="0 0 125 57" fill="none" xmlns="http://www.w3.org/2000/svg">
<g clip-path="url(#clip0_22_1371)">
<path d="M61.2008 25.6102C60.2674 25.6102 59.431 25.4582 58.6916 25.1542C57.9522 24.8501 57.3581 24.4001 56.9096 23.8041C56.4732 23.2082 56.2429 22.4906 56.2188 21.6514H59.528C59.5765 22.1257 59.7401 22.4906 60.0189 22.746C60.2977 22.9893 60.6614 23.1109 61.1099 23.1109C61.5705 23.1109 61.9342 23.0075 62.2008 22.8007C62.4675 22.5818 62.6008 22.2838 62.6008 21.9068C62.6008 21.5906 62.4918 21.3291 62.2736 21.1223C62.0675 20.9156 61.8068 20.7453 61.4916 20.6115C61.1886 20.4777 60.7522 20.3257 60.1825 20.1554C59.3582 19.9 58.6854 19.6446 58.1642 19.3892C57.643 19.1338 57.1946 18.7568 56.8188 18.2581C56.443 17.7595 56.2551 17.1088 56.2551 16.3061C56.2551 15.1141 56.6854 14.1837 57.5461 13.5148C58.4067 12.8337 59.528 12.4932 60.9099 12.4932C62.316 12.4932 63.4493 12.8337 64.3099 13.5148C65.1706 14.1837 65.6313 15.1202 65.6919 16.3243H62.328C62.3038 15.9108 62.1524 15.5885 61.8736 15.3574C61.5947 15.1141 61.2372 14.9925 60.8008 14.9925C60.425 14.9925 60.122 15.0959 59.8916 15.3027C59.6613 15.4973 59.5462 15.7831 59.5462 16.1601C59.5462 16.5736 59.74 16.8959 60.1279 17.127C60.5158 17.3581 61.122 17.6074 61.9463 17.875C62.7706 18.1547 63.4373 18.4223 63.9464 18.6777C64.4676 18.9331 64.9161 19.3041 65.2919 19.7906C65.6677 20.2771 65.8554 20.9034 65.8554 21.6696C65.8554 22.3994 65.6677 23.0622 65.2919 23.6582C64.9282 24.2541 64.3948 24.7285 63.6917 25.0812C62.9887 25.4339 62.1584 25.6102 61.2008 25.6102Z" fill="#353333"/>
<path d="M76.9513 12.6756V15.175H73.5693V25.4825H70.4601V15.175H67.0781V12.6756H76.9513Z" fill="#353333"/>
<path d="M86.4575 23.2203H81.6936L80.9299 25.4825H77.6753L82.2936 12.6756H85.8938L90.5122 25.4825H87.2211L86.4575 23.2203ZM85.6574 20.8122L84.0755 16.1236L82.5118 20.8122H85.6574Z" fill="#353333"/>
<path d="M98.4271 25.4825L95.7724 20.648H95.0269V25.4825H91.9177V12.6756H97.1361C98.1422 12.6756 98.9968 12.852 99.6999 13.2047C100.415 13.5574 100.949 14.0439 101.3 14.6641C101.652 15.2723 101.827 15.9533 101.827 16.7074C101.827 17.5588 101.585 18.3189 101.1 18.9879C100.627 19.6568 99.9241 20.1311 98.9907 20.4108L101.936 25.4825H98.4271ZM95.0269 18.4405H96.9543C97.524 18.4405 97.9483 18.3007 98.2271 18.0209C98.518 17.7412 98.6635 17.3459 98.6635 16.8351C98.6635 16.3486 98.518 15.9655 98.2271 15.6858C97.9483 15.406 97.524 15.2662 96.9543 15.2662H95.0269V18.4405Z" fill="#353333"/>
<path d="M112.961 12.6756V15.175H109.579V25.4825H106.47V15.175H103.088V12.6756H112.961Z" fill="#353333"/>
<path d="M59.6917 41.3179H63.7646V43.726H56.5825V30.9191H59.6917V41.3179Z" fill="#353333"/>
<path d="M73.1933 41.4638H68.4294L67.6658 43.726H64.4111L69.0295 30.9191H72.6296L77.248 43.726H73.9569L73.1933 41.4638ZM72.3932 39.0557L70.8114 34.3671L69.2476 39.0557H72.3932Z" fill="#353333"/>
<path d="M83.4358 30.9191C84.7814 30.9191 85.9572 31.1867 86.9633 31.7218C87.9694 32.257 88.7452 33.011 89.2907 33.984C89.8483 34.9448 90.1271 36.0577 90.1271 37.3226C90.1271 38.5753 89.8483 39.6881 89.2907 40.6611C88.7452 41.6341 87.9633 42.3882 86.9451 42.9233C85.939 43.4585 84.7692 43.726 83.4358 43.726H78.6538V30.9191H83.4358ZM83.2358 41.026C84.4116 41.026 85.3268 40.7037 85.9814 40.0591C86.636 39.4145 86.9633 38.5023 86.9633 37.3226C86.9633 36.1428 86.636 35.2246 85.9814 34.5678C85.3268 33.911 84.4116 33.5827 83.2358 33.5827H81.763V41.026H83.2358Z" fill="#353333"/>
<path d="M96.6466 30.9191C97.9921 30.9191 99.1679 31.1867 100.174 31.7218C101.18 32.257 101.956 33.011 102.501 33.984C103.059 34.9448 103.338 36.0577 103.338 37.3226C103.338 38.5753 103.059 39.6881 102.501 40.6611C101.956 41.6341 101.174 42.3882 100.156 42.9233C99.1497 43.4585 97.98 43.726 96.6466 43.726H91.8645V30.9191H96.6466ZM96.4466 41.026C97.6224 41.026 98.5376 40.7037 99.1921 40.0591C99.8467 39.4145 100.174 38.5023 100.174 37.3226C100.174 36.1428 99.8467 35.2246 99.1921 34.5678C98.5376 33.911 97.6224 33.5827 96.4466 33.5827H94.9738V41.026H96.4466Z" fill="#353333"/>
<path d="M108.185 33.4185V36.009H112.348V38.4172H108.185V41.2267H112.894V43.726H105.075V30.9191H112.894V33.4185H108.185Z" fill="#353333"/>
<path d="M121.422 43.726L118.767 38.8915H118.022V43.726H114.912V30.9191H120.131C121.137 30.9191 121.992 31.0955 122.695 31.4482C123.41 31.8009 123.943 32.2874 124.295 32.9076C124.646 33.5158 124.822 34.1969 124.822 34.9509C124.822 35.8023 124.58 36.5624 124.095 37.2314C123.622 37.9003 122.919 38.3746 121.985 38.6543L124.931 43.726H121.422ZM118.022 36.684H119.949C120.519 36.684 120.943 36.5442 121.222 36.2644C121.513 35.9847 121.658 35.5894 121.658 35.0786C121.658 34.5921 121.513 34.209 121.222 33.9293C120.943 33.6495 120.519 33.5097 119.949 33.5097H118.022V36.684Z" fill="#353333"/>
<path fill-rule="evenodd" clip-rule="evenodd" d="M20.4781 2.1029C23.0119 0.602469 23.607 0.28004 24.1425 0.117583C24.7438 -0.0647615 25.5575 -0.0331768 26.2444 0.199469C26.804 0.388978 35.1805 5.02698 40.9304 8.33126C41.9787 8.93356 44.1455 10.1471 45.7455 11.028C48.9252 12.7786 49.6462 13.3028 50.1328 14.2172C50.1658 14.2792 50.1953 14.3201 50.2219 14.3628C50.4802 14.7769 50.4663 15.3592 50.703 36.9762L50.7534 41.5824L50.3203 42.3622C49.7651 43.3619 49.477 43.5944 46.9678 45.0688C44.9277 46.2676 35.1943 52.0074 29.8753 55.1484C26.9928 56.8504 26.2241 57.135 25.0018 56.9518C24.4976 56.8762 22.9569 56.0806 19.0641 53.8854C16.1729 52.2551 12.8177 50.3732 11.6081 49.7035C1.47492 44.0926 0.743626 43.5977 0.408911 42.1252C0.311708 41.6975 0.192366 36.6224 0.0942827 28.7436C-0.0575146 16.5633 -0.0926998 15.2575 0.509985 14.3916C0.601741 14.2598 0.708281 14.1382 0.831446 13.9899C1.2877 13.4407 1.6167 13.2388 12.9276 6.56353C15.8305 4.85034 19.2283 2.84309 20.4781 2.1029ZM40.0187 14.6743C37.456 13.1651 33.4459 10.7984 31.1075 9.41494C28.769 8.03149 26.5533 6.72496 26.1837 6.51147L25.5116 6.12309L19.8794 9.4648C16.7816 11.3027 12.3668 13.9197 10.0687 15.2804L5.89028 17.7544L5.85069 20.7851C5.82856 22.47 5.86843 23.8159 5.94042 23.8159C6.01167 23.8159 7.64595 22.8716 9.57213 21.7172C17.2339 17.1262 25.3305 12.4102 25.5515 12.4102C25.7495 12.4102 31.7165 15.8751 42.3966 22.1916L44.889 23.6656L44.9287 20.8124C44.9521 19.1276 44.909 17.8484 44.8234 17.6887C44.7435 17.54 42.5814 16.1835 40.0187 14.6743ZM33.6695 20.5258L31.1806 19.027C29.8119 18.2027 28.625 17.5282 28.5435 17.5282C28.4444 17.5282 28.3952 22.7435 28.3952 33.2475C28.3952 41.8931 28.4276 48.9668 28.4673 48.9668C28.507 48.9668 30.3378 47.8381 32.5358 46.4586C34.7338 45.0789 38.3794 42.7996 40.6372 41.3932C42.895 39.9867 44.7909 38.763 44.8501 38.6738C44.9923 38.4596 44.9945 29.6641 44.8523 29.668C44.7918 29.6698 43.6208 30.3803 42.25 31.2471L39.7576 32.8231L39.6842 34.3032C39.6439 35.1174 39.578 35.8158 39.5376 35.8553C39.4973 35.8948 38.1778 36.7233 36.6054 37.6966L33.7465 39.4662L33.7079 29.996L33.6695 20.5258ZM22.5902 31.5096C22.5423 31.385 19.9393 29.8277 16.806 28.0488L11.1089 24.8146L11.0652 24.0326L11.0217 23.2506L8.54483 24.6919C7.18251 25.4848 6.01241 26.2206 5.94467 26.3272C5.79293 26.566 5.78208 27.6311 5.92913 27.8547C5.98836 27.9447 8.47797 29.4139 11.4615 31.1193C14.4451 32.8246 16.9792 34.3102 17.093 34.4205C17.3355 34.6556 17.5249 38.9832 17.3084 39.3407C17.2047 39.5118 16.0842 38.9288 11.6081 36.3755C8.54395 34.6277 5.98602 33.1923 5.924 33.1859C5.86184 33.1796 5.82885 34.5356 5.85069 36.1992L5.89028 39.2242L9.26234 41.1702C17.0854 45.6849 22.3652 48.6743 22.516 48.6743C22.6882 48.6743 22.7604 31.9521 22.5902 31.5096Z" fill="#6776FF"/>
</g>
<defs>
<clipPath id="clip0_22_1371">
<rect width="125" height="57" fill="white"/>
</clipPath>
</defs>
</svg>
